<svg width="18" height="16" viewBox="0 0 18 16" fill="none" xmlns="http://www.w3.org/2000/svg">
<path d="M17.1365 14.9389C17.1365 15.5246 16.6274 15.9999 16.0001 15.9999C15.3729 15.9999 14.8638 15.5246 14.8638 14.9389C14.8638 14.3533 15.3729 13.8779 16.0001 13.8779C16.6274 13.8779 17.1365 14.3533 17.1365 14.9389Z" fill="white"/>
<path d="M4.04543 14.9389C4.04543 15.5246 3.53634 15.9999 2.90907 15.9999C2.2818 15.9999 1.77271 15.5246 1.77271 14.9389C1.77271 14.3533 2.2818 13.8779 2.90907 13.8779C3.53634 13.8779 4.04543 14.3533 4.04543 14.9389Z" fill="white"/>
<path d="M2.90455 1.35809L2.4 0H0V0.721485H1.89545L4.50909 9.774C3.03636 10.2536 1.78636 11.3825 1.54091 12.8764C1.45455 13.3729 1.45455 13.5809 1.45455 13.5809H17.4545V12.8721H2.33182C2.54545 11.531 4.09545 10.4064 5.7 10.2196C7.30454 10.0329 16.7591 8.76817 16.7591 8.76817L17.4545 1.35809H2.90455ZM16 8.14854L5.31818 9.5618C5.27727 9.57029 5.23636 9.57878 5.19545 9.58727L3.16364 2.0626H16.6955L16 8.14854Z" fill="white"/>
</svg>
