<svg width="67" height="76" viewBox="0 0 67 76" fill="none" xmlns="http://www.w3.org/2000/svg">
<g clip-path="url(#clip0_103_125)">
<path d="M44.6623 5.2118L61.9227 23.1167C63.129 24.3639 62.9826 26.3717 61.8572 27.5949C60.6141 28.8132 58.6263 28.7843 57.4159 27.5289L40.1817 9.65041C38.0552 7.50236 35.226 6.32145 32.2163 6.32145C29.2065 6.32145 26.3773 7.50486 24.2404 9.65965L9.5318 24.3978C8.30093 25.6307 6.31396 25.6265 5.09043 24.3855C4.48115 23.767 4.17651 22.9605 4.17651 22.153C4.17651 21.3386 4.4852 20.5261 5.10273 19.9073L19.7982 5.16908C23.1229 1.84721 27.5328 -7.62939e-06 32.2307 -7.62939e-06C36.9285 -7.62939e-06 41.3254 1.84721 44.6623 5.2118ZM37.4781 14.8305L60.6651 38.2111C61.8468 39.3986 62.8125 41.7472 62.8125 43.4361V68.2021C62.8125 70.2419 61.1728 71.7778 59.2662 71.7778H34.8217C33.1519 71.7778 30.82 70.8039 29.6396 69.6139L6.45137 46.2333C3.58947 43.3477 3.58947 38.6703 6.45111 35.7846L27.2316 14.8319C29.9799 11.941 34.6123 11.941 37.4781 14.8305ZM43.9688 57.1187C43.9688 59.4502 45.8427 61.2222 48.0385 61.2222C50.3521 61.2222 52.1082 59.3315 52.1082 57.1187C52.1082 54.906 50.4725 52.8965 48.1562 52.8965C45.84 52.8965 43.9688 54.6646 43.9688 57.1187Z" fill="black"/>
</g>
<defs>
<clipPath id="clip0_103_125">
<rect width="76" height="67" fill="white" transform="matrix(0 -1 -1 0 67 76)"/>
</clipPath>
</defs>
</svg>
