<svg width="48" height="48" viewBox="0 0 48 48" fill="none" xmlns="http://www.w3.org/2000/svg">
<g clip-path="url(#clip0_11_261)">
<path d="M24 0C37.2667 0 48 10.7333 48 24C48 37.2667 37.2667 48 24 48C10.7333 48 0 37.2667 0 24C0 10.7333 10.7333 0 24 0Z" fill="#4460A0"/>
<path d="M34.1333 4.59992V10.7999H30.4667C27.6 10.7999 27 12.1999 27 14.1999V18.6666H33.8667L33 25.5999H27V43.6666H19.8667V25.5999H13.8667V18.6666H19.8667V13.5333C19.8667 7.59992 23.4667 4.33325 28.8 4.33325C31.3333 4.33325 33.5333 4.53325 34.1333 4.59992Z" fill="white"/>
</g>
<defs>
<clipPath id="clip0_11_261">
<rect width="48" height="48" fill="white"/>
</clipPath>
</defs>
</svg>
