<svg width="48" height="48" viewBox="0 0 48 48" fill="none" xmlns="http://www.w3.org/2000/svg">
<g clip-path="url(#clip0_11_265)">
<path d="M24 48C37.2548 48 48 37.2548 48 24C48 10.7452 37.2548 0 24 0C10.7452 0 0 10.7452 0 24C0 37.2548 10.7452 48 24 48Z" fill="#1CB7EB"/>
<path d="M36.8 15.4C35.9 15.9 34.8 16.2 33.8 16.3C34.9 15.6 35.7 14.5 36.1 13.2C35.1 13.8 34 14.3 32.7 14.6C31.7 13.5 30.4 12.8 28.9 12.8C26 12.8 23.6 15.3 23.6 18.5C23.6 18.9 23.6 19.4 23.7 19.8C19.3 19.6 15.4 17.3 12.8 13.9C12.3 14.7 12.1 15.7 12.1 16.8C12.1 18.8 13 20.5 14.4 21.5C13.5 21.5 12.7 21.2 12 20.8V20.9C12 23.6 13.8 25.9001 16.2 26.5001C15.8 26.6 15.3 26.7001 14.8 26.7001C14.5 26.7001 14.1 26.7001 13.8 26.6001C14.5 28.9001 16.4 30.5001 18.7 30.5001C16.9 32.0001 14.6 32.9001 12.2 32.9001C11.8 32.9001 11.4 32.9001 10.9 32.8001C13.2 34.4001 16 35.4001 19 35.4001C28.7 35.4001 34 26.8 34 19.3C34 19.1 34 18.8 34 18.6C35.2 17.6 36.1 16.6 36.8 15.4Z" fill="white"/>
</g>
<defs>
<clipPath id="clip0_11_265">
<rect width="48" height="48" fill="white"/>
</clipPath>
</defs>
</svg>
