<svg width="24" height="25" viewBox="0 0 24 25" fill="none" xmlns="http://www.w3.org/2000/svg">
<path d="M4.93941 12.7021C4.93941 13.0334 5.208 13.2646 5.53941 13.2646L16.9802 13.2646L12.5607 17.573C12.3228 17.8039 12.3173 18.1932 12.5478 18.4307C12.6655 18.5521 12.822 18.6177 12.9785 18.6177C13.129 18.6177 13.28 18.5637 13.3962 18.4506L18.8774 13.1316C18.994 13.0185 19.0596 12.8639 19.0596 12.7015C19.0596 12.5392 18.994 12.3842 18.8774 12.2711L13.3962 6.95146C13.1592 6.72093 12.779 6.72637 12.5478 6.96449C12.3173 7.20206 12.3228 7.60096 12.5607 7.83178L16.9802 12.1396L5.5395 12.1396C5.20809 12.1396 4.93941 12.3708 4.93941 12.7021ZM0 12.7021C0 6.0854 5.38331 0.702087 12 0.702087C18.6167 0.702087 24 6.0854 24 12.7021C24 19.3188 18.6167 24.7021 12 24.7021C5.38331 24.7021 0 19.3188 0 12.7021ZM1.2 12.7021C1.2 18.6572 6.04491 23.5021 12 23.5021C17.9551 23.5021 22.8 18.6572 22.8 12.7021C22.8 6.74699 17.9551 1.90209 12 1.90209C6.04491 1.90209 1.2 6.74699 1.2 12.7021Z" fill="white"/>
</svg>
